<svg width="45" height="46" viewBox="0 0 45 46" fill="none" xmlns="http://www.w3.org/2000/svg">
<path d="M44.2969 0.5H0.703125C0.516645 0.5 0.337802 0.574079 0.205941 0.705941C0.074079 0.837802 0 1.01664 0 1.20312L0 44.7969C0 44.9834 0.074079 45.1622 0.205941 45.2941C0.337802 45.4259 0.516645 45.5 0.703125 45.5H44.2969C44.4834 45.5 44.6622 45.4259 44.7941 45.2941C44.9259 45.1622 45 44.9834 45 44.7969V1.20312C45 1.01664 44.9259 0.837802 44.7941 0.705941C44.6622 0.574079 44.4834 0.5 44.2969 0.5V0.5ZM43.5938 44.0938H1.40625V1.90625H43.5938V44.0938Z" fill="#2B8761"/>
<path d="M4.21875 22.2969H21.0938C21.2802 22.2969 21.4591 22.2228 21.5909 22.0909C21.7228 21.9591 21.7969 21.7802 21.7969 21.5938V4.71875C21.7969 4.53227 21.7228 4.35343 21.5909 4.22157C21.4591 4.0897 21.2802 4.01562 21.0938 4.01562H4.21875C4.03227 4.01562 3.85343 4.0897 3.72157 4.22157C3.5897 4.35343 3.51562 4.53227 3.51562 4.71875V21.5938C3.51562 21.7802 3.5897 21.9591 3.72157 22.0909C3.85343 22.2228 4.03227 22.2969 4.21875 22.2969ZM10.1348 20.8906L16.669 14.3565L15.6748 13.3623L8.14641 20.8906H5.91609L20.3906 6.41609V20.8906H10.1348ZM15.1777 5.42188L7.94039 12.6591L8.93461 13.6534L17.1661 5.42188H19.3964L4.92188 19.8964V5.42188H15.1777Z" fill="#2B8761"/>
<path d="M23.9062 22.2969H40.7812C40.9677 22.2969 41.1466 22.2228 41.2784 22.0909C41.4103 21.9591 41.4844 21.7802 41.4844 21.5938V4.71875C41.4844 4.53227 41.4103 4.35343 41.2784 4.22157C41.1466 4.0897 40.9677 4.01562 40.7812 4.01562H23.9062C23.7198 4.01562 23.5409 4.0897 23.4091 4.22157C23.2772 4.35343 23.2031 4.53227 23.2031 4.71875V21.5938C23.2031 21.7802 23.2772 21.9591 23.4091 22.0909C23.5409 22.2228 23.7198 22.2969 23.9062 22.2969ZM24.6094 5.42188H40.0781V20.8906H24.6094V5.42188Z" fill="#2B8761"/>
<path d="M4.21875 41.9844H21.0938C21.2802 41.9844 21.4591 41.9103 21.5909 41.7784C21.7228 41.6466 21.7969 41.4677 21.7969 41.2812V24.4062C21.7969 24.2198 21.7228 24.0409 21.5909 23.9091C21.4591 23.7772 21.2802 23.7031 21.0938 23.7031H4.21875C4.03227 23.7031 3.85343 23.7772 3.72157 23.9091C3.5897 24.0409 3.51562 24.2198 3.51562 24.4062V41.2812C3.51562 41.4677 3.5897 41.6466 3.72157 41.7784C3.85343 41.9103 4.03227 41.9844 4.21875 41.9844ZM4.92188 25.1094H20.3906V40.5781H4.92188V25.1094Z" fill="#2B8761"/>
<path d="M23.9062 41.9844H40.7812C40.9677 41.9844 41.1466 41.9103 41.2784 41.7784C41.4103 41.6466 41.4844 41.4677 41.4844 41.2812V24.4062C41.4844 24.2198 41.4103 24.0409 41.2784 23.9091C41.1466 23.7772 40.9677 23.7031 40.7812 23.7031H23.9062C23.7198 23.7031 23.5409 23.7772 23.4091 23.9091C23.2772 24.0409 23.2031 24.2198 23.2031 24.4062V41.2812C23.2031 41.4677 23.2772 41.6466 23.4091 41.7784C23.5409 41.9103 23.7198 41.9844 23.9062 41.9844ZM29.8223 40.5781L36.3565 34.044L35.3623 33.0498L27.8339 40.5781H25.6036L40.0781 26.1036V40.5781H29.8223ZM34.8652 25.1094L27.6279 32.3466L28.6221 33.3409L36.8536 25.1094H39.0839L24.6094 39.5839V25.1094H34.8652Z" fill="#2B8761"/>
</svg>
