<svg width="72" height="73" viewBox="0 0 72 73" fill="none" xmlns="http://www.w3.org/2000/svg">
<path d="M20.5532 25.1602H5.29384C4.70856 25.1602 4.23438 25.6345 4.23438 26.2196V63.1209C4.23438 63.706 4.7087 64.1804 5.29384 64.1804H66.7034C67.2887 64.1804 67.7628 63.706 67.7628 63.1209V26.2196C67.7628 25.6345 67.2885 25.1602 66.7034 25.1602H24.7914C24.2061 25.1602 23.7319 25.6345 23.7319 26.2196C23.7319 26.8048 24.2062 27.2791 24.7914 27.2791H65.6439V62.0613H6.35331V27.2791H20.5532C21.1385 27.2791 21.6127 26.8048 21.6127 26.2196C21.6128 25.6345 21.1385 25.1602 20.5532 25.1602Z" fill="#2B8761"/>
<path d="M68.1151 21.3413H63.4507L40.3349 9.92398C40.3875 9.66186 40.4155 9.39102 40.4155 9.1137C40.4155 6.84542 38.5702 5 36.3019 5C34.0336 5 32.1882 6.84542 32.1882 9.1137C32.1882 9.39102 32.2162 9.662 32.2688 9.92398L9.153 21.3413H3.88491C1.74277 21.3413 0 23.0841 0 25.2262V64.9282C0 67.0703 1.74277 68.8131 3.88491 68.8131H49.0029C49.588 68.8131 50.0624 68.3388 50.0624 67.7536C50.0624 67.1685 49.588 66.6942 49.0029 66.6942H3.88491C2.91122 66.6942 2.11908 65.902 2.11908 64.9283V25.2262C2.11908 24.2525 2.91122 23.4604 3.88491 23.4604H44.3475C44.9328 23.4604 45.407 22.9861 45.407 22.4009C45.407 21.8158 44.9326 21.3415 44.3475 21.3415H13.9382L33.21 11.8227C33.9645 12.6829 35.0705 13.2275 36.3019 13.2275C37.5334 13.2275 38.6394 12.6829 39.3938 11.8227L58.6657 21.3415H48.5857C48.0005 21.3415 47.5262 21.8158 47.5262 22.4009C47.5262 22.9861 48.0005 23.4604 48.5857 23.4604H68.1151C69.0888 23.4604 69.8809 24.2525 69.8809 25.2262V64.9282C69.8809 65.9019 69.0888 66.694 68.1151 66.694H53.2409C52.6556 66.694 52.1814 67.1683 52.1814 67.7535C52.1814 68.3386 52.6558 68.813 53.2409 68.813H68.1151C70.2572 68.813 72 67.0702 72 64.928V25.2262C72 23.0841 70.2574 21.3413 68.1151 21.3413ZM36.3019 11.1085C35.2021 11.1085 34.3073 10.2137 34.3073 9.11384C34.3073 8.01402 35.2021 7.11922 36.3019 7.11922C37.4017 7.11922 38.2965 8.01402 38.2965 9.11384C38.2964 10.2137 37.4016 11.1085 36.3019 11.1085Z" fill="#2B8761"/>
<path d="M18.047 39.2894C18.6322 39.2894 19.1065 38.815 19.1065 38.2299C19.1065 37.6447 18.6322 37.1704 18.047 37.1704H13.497C12.9117 37.1704 12.4375 37.6447 12.4375 38.2299V49.5582C12.4375 49.5593 12.4376 49.5603 12.4376 49.5614C12.4376 49.5626 12.4375 49.5636 12.4375 49.5647C12.4375 50.1498 12.9118 50.6241 13.497 50.6241H18.047C18.6322 50.6241 19.1065 50.1498 19.1065 49.5647C19.1065 48.9795 18.6322 48.5052 18.047 48.5052H14.5564V44.9568H18.047C18.6322 44.9568 19.1065 44.4825 19.1065 43.8973C19.1065 43.3122 18.6322 42.8379 18.047 42.8379H14.5564V39.2896H18.047V39.2894Z" fill="#2B8761"/>
<path d="M32.9227 50.6244H37.473C38.0581 50.6244 38.5324 50.15 38.5324 49.5649C38.5324 48.9797 38.0581 48.5054 37.473 48.5054H33.9822V44.957H37.473C38.0581 44.957 38.5324 44.4827 38.5324 43.8976C38.5324 43.3124 38.0581 42.8381 37.473 42.8381H33.9822V39.2898H37.473C38.0581 39.2898 38.5324 38.8155 38.5324 38.2304C38.5324 37.6452 38.0581 37.1709 37.473 37.1709H32.9227C32.3376 37.1709 31.8633 37.6452 31.8633 38.2304V49.5587C31.8633 49.5598 31.8634 49.5608 31.8634 49.5619C31.8634 49.5631 31.8633 49.564 31.8633 49.5652C31.8633 50.15 32.3375 50.6244 32.9227 50.6244Z" fill="#2B8761"/>
<path d="M20.4532 38.5146L23.4232 49.1727C23.6651 50.0411 24.4333 50.6244 25.3347 50.6244C26.236 50.6244 27.0042 50.0409 27.2461 49.1727L30.2161 38.5146C30.3732 37.951 30.0436 37.3667 29.4799 37.2096C28.9157 37.0524 28.3319 37.3823 28.1748 37.9458L25.3346 48.1381L22.4942 37.9458C22.3373 37.3822 21.7536 37.0527 21.1891 37.2096C20.6259 37.3667 20.2961 37.951 20.4532 38.5146Z" fill="#2B8761"/>
<path d="M42.865 49.5584V42.2772L47.2534 50.084C47.5012 50.5246 48.0433 50.731 48.5217 50.5666C48.9447 50.4214 49.2365 50.0119 49.2365 49.5647V38.23C49.2365 37.6449 48.7621 37.1706 48.177 37.1706C47.5919 37.1706 47.1175 37.6449 47.1175 38.23V45.5176L42.7292 37.7108C42.4929 37.2908 42.003 37.0831 41.5373 37.205C41.0711 37.3271 40.7461 37.7481 40.7461 38.23V49.5584C40.7461 50.1435 41.2204 50.6178 41.8056 50.6178C42.3908 50.618 42.865 50.1435 42.865 49.5584Z" fill="#2B8761"/>
<path d="M55.4515 50.6244C56.0368 50.6244 56.511 50.15 56.511 49.5649V39.2962H59.1092C59.6944 39.2962 60.1686 38.8219 60.1686 38.2367C60.1686 37.6516 59.6943 37.1772 59.1092 37.1772H51.7938C51.2086 37.1772 50.7344 37.6516 50.7344 38.2367C50.7344 38.8219 51.2087 39.2962 51.7938 39.2962H54.392V49.5649C54.392 50.15 54.8664 50.6244 55.4515 50.6244Z" fill="#2B8761"/>
</svg>
